<svg width="24" height="22" viewBox="0 0 24 22" fill="none" xmlns="http://www.w3.org/2000/svg">
<path d="M22.7566 7.68046L15.8617 6.72237L12.7794 0.747944C12.6953 0.584368 12.5568 0.451949 12.3857 0.371459C11.9566 0.168936 11.4352 0.337705 11.2207 0.747944L8.13845 6.72237L1.24349 7.68046C1.0534 7.70643 0.879601 7.79211 0.746536 7.92193C0.585667 8.08002 0.497021 8.29271 0.500076 8.51326C0.503132 8.7338 0.597638 8.94417 0.762829 9.09813L5.75142 13.7484L4.57284 20.3148C4.5452 20.4675 4.56288 20.6246 4.62387 20.7683C4.68486 20.9119 4.78673 21.0363 4.91791 21.1274C5.04909 21.2185 5.20435 21.2726 5.36607 21.2837C5.52779 21.2947 5.68951 21.2622 5.83289 21.1898L12.0001 18.0896L18.1672 21.1898C18.3356 21.2755 18.5311 21.304 18.7185 21.2729C19.191 21.195 19.5087 20.7666 19.4273 20.3148L18.2487 13.7484L23.2373 9.09813C23.3731 8.9709 23.4627 8.80473 23.4898 8.62298C23.5632 8.1686 23.2318 7.74797 22.7566 7.68046Z" fill="url(#paint0_linear_1_666)"/>
<defs>
<linearGradient id="paint0_linear_1_666" x1="0.5" y1="5.46577" x2="8.17889" y2="24.517" gradientUnits="userSpaceOnUse">
<stop stop-color="#FF5200"/>
<stop offset="1" stop-color="#FA9905"/>
</linearGradient>
</defs>
</svg>
